<svg width="25" height="25" viewBox="0 0 25 25" fill="none" xmlns="http://www.w3.org/2000/svg">
<path fill-rule="evenodd" clip-rule="evenodd" d="M5.46873 10.4735V8.33331C5.46873 4.45006 8.61673 1.30206 12.5 1.30206C16.3832 1.30206 19.5312 4.45006 19.5312 8.33331V10.4735C20.6925 10.5603 21.4486 10.7791 22.0013 11.332C22.9166 12.2473 22.9166 13.7204 22.9166 16.6666C22.9166 19.6129 22.9166 21.086 22.0013 22.0013C21.086 22.9166 19.6129 22.9166 16.6666 22.9166H8.33331C5.38703 22.9166 3.9139 22.9166 2.9986 22.0013C2.08331 21.086 2.08331 19.6129 2.08331 16.6666C2.08331 13.7204 2.08331 12.2473 2.9986 11.332C3.55134 10.7791 4.30753 10.5603 5.46873 10.4735ZM7.03123 8.33331C7.03123 5.31301 9.47968 2.86456 12.5 2.86456C15.5203 2.86456 17.9687 5.31301 17.9687 8.33331V10.4204C17.5698 10.4166 17.137 10.4166 16.6666 10.4166H8.33331C7.86299 10.4166 7.4302 10.4166 7.03123 10.4204V8.33331ZM14.5833 16.6666C14.5833 17.8173 13.6506 18.75 12.5 18.75C11.3494 18.75 10.4166 17.8173 10.4166 16.6666C10.4166 15.516 11.3494 14.5833 12.5 14.5833C13.6506 14.5833 14.5833 15.516 14.5833 16.6666Z" fill="#40744D"/>
</svg>
