<svg width="60" height="60" viewBox="0 0 60 60" fill="none" xmlns="http://www.w3.org/2000/svg">
<path d="M43.2323 35.7323C42.256 36.7085 42.256 38.2915 43.2323 39.2678C44.2085 40.244 45.7915 40.244 46.7677 39.2678L54.0503 31.9853C54.0878 31.9478 54.1243 31.9093 54.1593 31.87C54.675 31.412 55 30.744 55 30C55 29.256 54.675 28.588 54.1593 28.13C54.1243 28.0908 54.0878 28.0523 54.0503 28.0148L46.7677 20.7322C45.7915 19.7559 44.2085 19.7559 43.2323 20.7322C42.256 21.7086 42.256 23.2915 43.2323 24.2678L46.4645 27.5H32.5C31.1193 27.5 30 28.6193 30 30C30 31.3808 31.1193 32.5 32.5 32.5H46.4645L43.2323 35.7323Z" fill="#40744D"/>
<path d="M12.5 5C8.35788 5 5 8.35788 5 12.5V47.5C5 51.6423 8.35788 55 12.5 55H36.25C39.7017 55 42.5 52.2017 42.5 48.75V41.8315C42.1297 41.6175 41.7813 41.3522 41.4645 41.0355C39.8285 39.3995 39.5633 36.9123 40.6685 35H32.5C29.7385 35 27.5 32.7615 27.5 30C27.5 27.2385 29.7385 25 32.5 25H40.6685C39.5633 23.0879 39.8285 20.6004 41.4645 18.9645C41.7813 18.6478 42.1297 18.3824 42.5 18.1685V11.25C42.5 7.79822 39.7017 5 36.25 5H12.5Z" fill="#40744D"/>
</svg>
